<?xml version="1.0" standalone="no"?>
<!DOCTYPE svg PUBLIC "-//W3C//DTD SVG 20010904//EN"
 "http://www.w3.org/TR/2001/REC-SVG-20010904/DTD/svg10.dtd">
<svg version="1.0" xmlns="http://www.w3.org/2000/svg"
 width="400.000000pt" height="400.000000pt" viewBox="0 0 400.000000 400.000000"
 preserveAspectRatio="xMidYMid meet">
<metadata>
Created by potrace 1.11, written by Peter Selinger 2001-2013
</metadata>
<g transform="translate(0.000000,400.000000) scale(0.100000,-0.100000)"
fill="#000000" stroke="none">
<path d="M3579 3592 c-62 -40 -120 -106 -230 -262 -96 -135 -180 -272 -244
-400 -19 -38 -57 -107 -85 -154 l-51 -86 -60 45 c-60 44 -211 125 -233 125
-14 0 -66 -84 -94 -151 l-20 -45 -78 11 c-44 7 -97 21 -120 33 -56 29 -146
104 -163 136 -18 32 -31 34 -31 3 0 -32 50 -99 94 -126 43 -27 45 -32 8 -22
-41 12 -105 47 -139 75 -17 14 -33 23 -36 19 -9 -8 20 -60 40 -72 17 -10 17
-10 1 -11 -21 0 -24 -16 -5 -23 6 -3 -4 -6 -23 -7 -30 -1 -158 -32 -225 -54
-19 -7 -20 -4 -17 73 8 162 -25 341 -114 630 -88 282 -136 315 -214 148 -93
-198 -212 -527 -274 -757 -28 -104 -80 -353 -91 -440 -5 -39 -21 -77 -52 -128
-57 -94 -96 -193 -133 -335 -54 -203 -64 -304 -65 -607 0 -272 1 -276 28 -363
61 -198 127 -278 324 -395 201 -119 285 -202 364 -357 26 -51 42 -71 58 -73
20 -3 22 0 16 20 -14 48 -59 129 -109 195 -72 93 -176 178 -313 253 -135 75
-195 134 -247 243 -62 129 -78 209 -83 421 -13 482 76 836 274 1096 29 38 53
72 53 75 0 13 -22 2 -55 -29 -21 -20 -34 -27 -31 -18 3 10 14 62 26 117 35
169 98 401 151 559 101 300 218 586 239 586 15 0 44 -65 85 -190 86 -267 121
-448 127 -661 3 -85 3 -87 -24 -102 -31 -18 -38 -43 -10 -34 9 3 50 17 91 32
40 15 103 33 140 41 98 21 309 27 416 12 103 -15 98 -5 75 -138 -7 -43 -10
-101 -6 -136 5 -46 3 -63 -6 -67 -52 -19 130 -67 252 -67 89 0 212 25 269 55
29 15 33 14 83 -14 29 -16 64 -31 78 -33 16 -2 35 -18 52 -44 65 -96 218 -221
314 -256 21 -7 34 -19 34 -30 0 -26 9 -23 52 19 21 20 39 35 42 32 10 -11 20
-290 15 -429 -3 -85 -2 -198 2 -250 9 -106 36 -240 49 -240 19 0 20 43 3 117
-14 66 -17 121 -15 360 2 209 -2 308 -13 381 l-15 100 35 57 c57 95 104 268
91 336 -5 31 -12 37 -57 53 -39 14 -49 22 -44 35 74 190 84 573 24 896 -24
126 -51 197 -87 225 -32 26 -40 25 -93 -8z m92 -57 c72 -163 105 -617 65 -900
-10 -66 -19 -129 -22 -140 -5 -19 -12 -20 -119 -16 -95 3 -126 0 -182 -18 -37
-12 -79 -27 -92 -35 -21 -12 -30 -10 -88 20 -35 19 -77 34 -92 34 -23 0 -31 7
-47 42 -10 23 -36 64 -57 91 l-39 49 33 51 c34 55 82 139 197 353 130 242 208
355 301 439 46 41 92 75 103 75 13 0 25 -14 39 -45z"/>
<path d="M3442 3337 c-109 -175 -229 -497 -249 -666 -8 -68 11 -63 22 5 20
135 109 382 209 582 31 61 52 112 47 112 -5 0 -18 -15 -29 -33z"/>
<path d="M3388 2897 c-40 -30 -108 -117 -108 -138 0 -20 17 -6 49 42 19 27 52
64 75 81 60 46 62 48 44 48 -9 0 -36 -15 -60 -33z"/>
<path d="M3270 2680 c-14 -10 -22 -22 -18 -25 8 -8 58 24 58 36 0 14 -13 10
-40 -11z"/>
<path d="M3265 2629 c-12 -19 5 -23 22 -6 16 16 16 17 1 17 -9 0 -20 -5 -23
-11z"/>
<path d="M3265 2570 c3 -5 8 -10 11 -10 2 0 4 5 4 10 0 6 -5 10 -11 10 -5 0
-7 -4 -4 -10z"/>
<path d="M1246 1844 c-9 -8 -16 -20 -16 -26 0 -5 -7 -26 -16 -44 -13 -27 -16
-54 -12 -119 9 -130 54 -204 112 -182 21 8 46 101 46 171 0 78 -23 162 -51
192 -26 28 -42 30 -63 8z m54 -60 c30 -59 22 -274 -10 -274 -32 0 -64 147 -49
225 18 96 30 106 59 49z"/>
<path d="M2328 1833 c-31 -36 -40 -68 -45 -162 -6 -110 6 -171 43 -208 57 -57
107 7 112 144 4 91 -14 173 -49 216 -24 31 -40 34 -61 10z m62 -93 c15 -54 12
-185 -5 -227 -15 -35 -16 -35 -34 -18 -30 26 -41 98 -30 193 5 46 14 93 20
105 11 20 12 20 25 2 8 -11 19 -35 24 -55z"/>
<path d="M1046 1371 c-8 -12 30 -58 40 -49 9 10 -12 58 -25 58 -5 0 -12 -4
-15 -9z"/>
<path d="M1100 1371 c0 -19 66 -85 73 -74 9 14 -35 77 -56 81 -9 2 -17 -1 -17
-7z"/>
<path d="M1010 1351 c0 -6 5 -13 10 -16 6 -3 10 1 10 9 0 9 -4 16 -10 16 -5 0
-10 -4 -10 -9z"/>
<path d="M1668 1346 c-13 -6 -24 -18 -26 -27 -2 -12 10 -15 67 -15 38 1 73 4
77 9 24 23 -79 52 -118 33z"/>
<path d="M2804 1338 c-9 -13 58 -78 81 -78 13 0 14 4 4 23 -28 54 -69 81 -85
55z"/>
<path d="M2935 1329 c-8 -12 43 -69 62 -69 17 0 16 11 -3 38 -20 29 -51 45
-59 31z"/>
<path d="M3030 1322 c0 -10 33 -42 44 -42 4 0 6 10 4 23 -2 14 -11 23 -25 25
-13 2 -23 -1 -23 -6z"/>
<path d="M1617 1139 c-27 -10 -28 -14 -22 -53 10 -65 65 -238 87 -273 26 -43
63 -44 102 -4 36 38 76 149 83 233 l6 68 -39 16 c-48 20 -179 28 -217 13z"/>
</g>
</svg>
